<svg width="28" height="26" viewBox="0 0 28 26" fill="none" xmlns="http://www.w3.org/2000/svg">
<path d="M6.32723 0L14.0428 19.2564L21.7583 0H25.7944V23.6005H22.6822V14.4099L22.974 4.48992L15.226 23.6005H12.8433L5.11155 4.53855L5.41952 14.4099V23.6005H2.30737V0H6.32723Z" fill="white"/>
<path d="M6.84025 18.0423L7.2941 21.1544L7.95867 18.3502L12.6269 1.88177H15.2528L19.8075 18.3502L20.4559 21.203L20.9584 18.0261L24.6216 1.88177H27.75L22.0282 25.4822H19.1916L14.3289 8.28437L13.956 6.48516L13.5832 8.28437L8.5422 25.4822H5.70561L0 1.88177H3.11215L6.84025 18.0423Z" fill="white"/>
</svg>
